Music_OlivineCity:
	channel_count 4
	channel 1, Music_OlivineCity_Ch1
	channel 2, Music_OlivineCity_Ch2
	channel 3, Music_OlivineCity_Ch3
	channel 4, Music_OlivineCity_Ch4

Music_OlivineCity_Ch1:
	tempo 164
	volume 7, 7
	vibrato 18, 2, 5
	duty_cycle 2
	note_type 12, 9, 5
	rest 16
	stereo_panning TRUE, FALSE
	octave 2
	note D#, 1
	note G_, 1
	note A#, 1
	stereo_panning TRUE, TRUE
	octave 3
	note D_, 1
	note G_, 1
	rest 1
	note A_, 4
	note G_, 2
	note F_, 2
	note C_, 2
	stereo_panning FALSE, TRUE
	octave 2
	note D_, 1
	note F_, 1
	note A_, 1
	stereo_panning TRUE, TRUE
	octave 3
	note C_, 1
	note F_, 1
	rest 1
	note D_, 4
	note G_, 2
	note D_, 2
	octave 2
	note G_, 2
	note C_, 1
	note D#, 1
	note G_, 1
	note A#, 1
	octave 3
	note G_, 1
	rest 1
	octave 2
	note A#, 4
	note_type 6, 9, 1
	octave 3
	note C_, 2
	note E_, 2
	note C_, 2
	note E_, 2
	note G_, 2
	note A#, 2
	volume_envelope 10, 4
	octave 2
	note A#, 8
	rest 4
	octave 3
	note C_, 12
	rest 8
.mainloop:
	note_type 6, 9, 5
	rest 4
	octave 2
	note A#, 2
	octave 3
	note C_, 2
	note D_, 4
	note D_, 2
	note D#, 2
	note D_, 2
	rest 2
	note F_, 2
	rest 2
	note G_, 2
	rest 2
	note A#, 2
	rest 2
	stereo_panning TRUE, FALSE
	octave 4
	note C_, 2
	octave 3
	note G_, 2
	note D#, 2
	octave 4
	note C_, 2
	stereo_panning TRUE, TRUE
	octave 3
	note B_, 2
	note G_, 2
	note D#, 2
	note B_, 2
	stereo_panning FALSE, TRUE
	note A#, 2
	rest 2
	note A#, 2
	rest 2
	note A_, 8
	stereo_panning TRUE, TRUE
	rest 4
	note C_, 2
	note D#, 2
	note A_, 4
	note A_, 2
	octave 4
	note C_, 2
	octave 3
	note A_, 2
	rest 2
	note F_, 2
	rest 2
	note D#, 2
	rest 2
	note C_, 2
	rest 2
	stereo_panning FALSE, TRUE
	note D_, 8
	stereo_panning TRUE, TRUE
	note D#, 8
	stereo_panning TRUE, FALSE
	note E_, 2
	rest 2
	note E_, 2
	rest 2
	note E_, 2
	rest 2
	note F#, 4
	stereo_panning TRUE, TRUE
	note G_, 2
	note D_, 1
	rest 1
	octave 2
	note A#, 1
	rest 1
	octave 3
	note D_, 1
	rest 1
	note A#, 4
	note G_, 2
	note G_, 2
	note A_, 2
	rest 2
	note A_, 2
	rest 2
	note D_, 4
	note F_, 2
	rest 2
	note_type 12, 9, 5
	rest 8
	octave 4
	note E_, 3
	duty_cycle 1
	note_type 6, 7, 5
	note G_, 1
	note A#, 1
	octave 5
	note D_, 8
	note_type 12, 9, 3
	duty_cycle 2
	rest 16
	note_type 6, 9, 1
	stereo_panning TRUE, FALSE
	octave 3
	note D#, 2
	octave 2
	note A#, 2
	note G_, 2
	octave 3
	note D#, 2
	stereo_panning FALSE, TRUE
	octave 2
	note A#, 2
	note G_, 2
	note A#, 2
	octave 3
	note D#, 2
	volume_envelope 10, 4
	stereo_panning TRUE, TRUE
	note D_, 8
	rest 8
	duty_cycle 3
	volume_envelope 8, 4
	rest 4
	note F#, 2
	note G#, 2
	note A#, 4
	octave 4
	note C#, 4
	note C_, 4
	note_type 8, 8, 4
	octave 3
	note A#, 1
	octave 4
	note C_, 1
	octave 3
	note A#, 1
	note G#, 3
	note_type 12, 8, 4
	note F_, 1
	rest 1
	note F_, 2
	note C_, 1
	rest 1
	note F_, 2
	note C#, 4
	note D#, 4
	note F_, 2
	note A#, 1
	rest 1
	note A#, 1
	octave 4
	note C_, 1
	note C#, 2
	note F_, 2
	note D#, 2
	note_type 8, 8, 4
	note C#, 1
	note D#, 1
	note C#, 1
	note C_, 3
	note_type 12, 8, 4
	octave 3
	note A#, 1
	rest 1
	note G#, 2
	note F_, 1
	rest 1
	note G#, 2
	octave 4
	note D#, 4
	note C#, 4
	note C_, 2
	note G_, 1
	note D#, 1
	octave 3
	note A#, 1
	octave 4
	note D#, 1
	note G_, 1
	rest 1
	note G_, 1
	note A_, 1
	note A#, 4
	rest 4
	note G_, 1
	note E_, 1
	octave 3
	note A#, 1
	octave 4
	note E_, 1
	note G_, 1
	rest 1
	note G_, 1
	note A_, 1
	note A#, 4
	rest 4
	note C_, 1
	octave 3
	note A#, 1
	note F_, 1
	octave 4
	note C_, 1
	octave 3
	note A#, 1
	note F_, 1
	octave 4
	note C_, 1
	octave 3
	note A#, 1
	note F_, 1
	note C_, 1
	note F_, 1
	note A_, 1
	octave 4
	note C_, 1
	note F_, 1
	note A_, 1
	octave 5
	note C_, 1
	duty_cycle 2
	octave 4
	note C_, 6
	note A#, 1
	octave 3
	note B_, 1
	octave 4
	note C_, 4
	rest 4
	sound_loop 0, .mainloop

Music_OlivineCity_Ch2:
	vibrato 18, 2, 4
	duty_cycle 2
	note_type 12, 12, 7
	rest 16
	octave 3
	note G_, 1
	rest 1
	note A_, 1
	rest 1
	note A#, 1
	rest 1
	octave 4
	note D_, 4
	note C_, 2
	octave 3
	note A_, 2
	note G_, 2
	note F_, 1
	rest 1
	note G_, 1
	rest 1
	note A_, 1
	rest 1
	octave 4
	note C_, 4
	octave 3
	note A#, 2
	note A_, 2
	note A#, 2
	note G_, 1
	rest 1
	note A_, 1
	rest 1
	note A#, 1
	rest 1
	note G_, 4
	note A_, 2
	note A#, 2
	octave 4
	note C_, 2
	note D_, 2
	octave 3
	note F_, 2
	octave 4
	note D_, 1
	rest 1
	note C_, 6
	rest 2
	note D_, 1
	note D#, 1
.mainloop:
	volume_envelope 11, 7
	note F_, 4
	rest 2
	note F_, 1
	note G_, 1
	note F_, 1
	rest 1
	note D#, 1
	rest 1
	note D_, 1
	rest 1
	note F_, 1
	rest 1
	note D#, 14
	note C_, 1
	note D_, 1
	note D#, 4
	rest 2
	note D#, 1
	note F_, 1
	note D#, 1
	rest 1
	note D_, 1
	rest 1
	note C_, 1
	rest 1
	note D#, 1
	rest 1
	note D_, 12
	rest 2
	octave 3
	note A#, 1
	octave 4
	note C_, 1
	note D_, 4
	rest 2
	note D_, 1
	note D#, 1
	note D_, 1
	rest 1
	note C_, 1
	rest 1
	octave 3
	note A#, 2
	octave 4
	note C_, 1
	rest 1
	note D_, 4
	note G_, 4
	note A#, 3
	rest 3
	note C_, 1
	note D_, 1
	note D#, 2
	octave 3
	note G_, 2
	note A#, 2
	octave 4
	note D#, 2
	note D_, 1
	octave 3
	note F_, 1
	note A#, 1
	octave 4
	note D_, 1
	note C_, 1
	octave 3
	note D#, 1
	note A_, 1
	octave 4
	note C_, 1
	octave 3
	note A#, 12
	rest 4
	volume_envelope 10, 7
	duty_cycle 3
	rest 2
	note A#, 1
	octave 4
	note C_, 1
	note C#, 2
	note F_, 2
	note D#, 2
	note_type 8, 10, 7
	note C#, 1
	note D#, 1
	note C#, 1
	note C_, 3
	note_type 12, 10, 7
	octave 3
	note A#, 1
	rest 1
	note G#, 2
	note F_, 1
	rest 1
	note G#, 2
	octave 4
	note D#, 4
	note C#, 4
	note C_, 2
	rest 2
	note F#, 1
	note G#, 1
	note A#, 2
	octave 5
	note C#, 2
	note C_, 2
	note_type 8, 10, 7
	octave 4
	note A#, 1
	octave 5
	note C_, 1
	octave 4
	note A#, 1
	note G#, 3
	note_type 12, 10, 7
	note F#, 1
	rest 1
	note F_, 2
	note C_, 1
	rest 1
	note F_, 2
	vibrato 0, 0, 0
	volume_envelope 8, 7
	octave 5
	note D#, 4
	note F_, 4
	note C#, 1
	note D#, 1
	note F_, 12
	rest 2
	note C#, 1
	note D#, 1
	note F_, 12
	rest 2
	octave 4
	note A_, 1
	note A#, 1
	octave 5
	note C_, 11
	rest 5
	vibrato 18, 2, 4
	volume_envelope 10, 7
	duty_cycle 2
	octave 4
	note A_, 6
	note G#, 1
	note G_, 1
	note F_, 4
	rest 2
	note D_, 1
	note D#, 1
	sound_loop 0, .mainloop

Music_OlivineCity_Ch3:
	note_type 12, 2, 5
	rest 16
	rest 6
	octave 4
	note D#, 4
	rest 6
	rest 6
	octave 3
	note G_, 4
	rest 6
	rest 6
	note E_, 4
	rest 6
	octave 2
	note F_, 4
	octave 3
	note C_, 1
	rest 1
	note A_, 4
	note G#, 1
	note G_, 1
	note F_, 2
	octave 2
	note A_, 2
.mainloop:
	note_type 12, 2, 5
	note A#, 1
	rest 5
	note A#, 1
	note A#, 1
	rest 2
	note A#, 1
	rest 1
	octave 3
	note F_, 2
	octave 2
	note F_, 1
	rest 1
	octave 3
	note C_, 1
	rest 5
	note C_, 1
	note C_, 1
	rest 2
	note C_, 1
	rest 1
	note G_, 2
	octave 2
	note G_, 1
	rest 1
	note F_, 1
	rest 5
	note F_, 1
	note F_, 1
	note F_, 1
	rest 1
	note F_, 1
	rest 1
	octave 3
	note F_, 2
	note C_, 1
	rest 1
	octave 2
	note A#, 1
	rest 5
	note A#, 1
	note A#, 1
	rest 2
	note A#, 1
	rest 1
	octave 3
	note A#, 4
	note G_, 1
	rest 5
	note G_, 1
	note G_, 1
	note F#, 1
	rest 1
	note F#, 1
	rest 1
	note F_, 2
	note F_, 1
	rest 1
	note_type 6, 2, 5
	octave 3
	note C_, 2
	note E_, 2
	note G_, 2
	note A#, 2
	octave 4
	note C_, 2
	note E_, 2
	note G_, 2
	note A#, 2
	octave 4
	note C_, 6
	note_type 12, 2, 5
	rest 5
	note_type 6, 2, 5
	octave 2
	note D#, 2
	rest 10
	note D#, 2
	note D#, 2
	note F_, 2
	rest 2
	note F_, 2
	rest 2
	octave 3
	note C_, 4
	octave 2
	note B_, 4
	note A#, 2
	rest 10
	note A#, 2
	note A#, 2
	rest 4
	note A#, 2
	rest 2
	note G#, 8
	sound_call .sub1
	note F_, 2
	rest 10
	note A#, 2
	note A#, 2
	note A#, 2
	rest 2
	note A_, 8
	note G#, 2
	rest 2
	sound_call .sub1
	note F_, 2
	rest 10
	note A#, 2
	note A#, 2
	note A#, 2
	rest 2
	note A_, 8
	note G#, 2
	rest 2
	octave 3
	note D#, 2
	rest 10
	note D#, 2
	note D#, 2
	rest 4
	note D#, 2
	rest 2
	note A#, 4
	note G_, 2
	note F_, 2
	note E_, 2
	rest 10
	note E_, 2
	note E_, 2
	rest 4
	note F_, 2
	rest 2
	octave 4
	note C_, 4
	octave 3
	note A_, 2
	note G_, 2
	note F_, 2
	rest 10
	note F_, 2
	note F_, 2
	octave 2
	note F_, 2
	rest 2
	note F_, 2
	rest 2
	octave 3
	note F_, 4
	octave 2
	note F_, 2
	note G_, 2
	octave 3
	note F_, 12
	note G_, 2
	note G#, 2
	note A_, 8
	rest 4
	octave 2
	note A_, 4
	sound_loop 0, .mainloop

.sub1:
	note F#, 2
	rest 10
	note F#, 2
	note F#, 2
	note G#, 2
	rest 2
	note G#, 2
	rest 2
	octave 3
	note D#, 4
	octave 2
	note G#, 4
	sound_ret

Music_OlivineCity_Ch4:
	toggle_noise 3
	drum_speed 12
	drum_note 4, 2
	drum_note 3, 2
	drum_note 4, 1
	drum_note 4, 1
	drum_note 3, 2
	drum_note 3, 4
	drum_note 7, 4
	sound_call .sub1
	sound_call .sub1
	sound_call .sub1
	drum_note 3, 2
	drum_note 4, 1
	drum_note 4, 1
	drum_note 3, 2
	drum_note 1, 8
	drum_note 4, 2
.mainloop:
	sound_call .sub2
	sound_call .sub2
	sound_call .sub2
	sound_call .sub2
	sound_call .sub2
	sound_call .sub2
	sound_call .sub2
	sound_call .sub2
	sound_call .sub2
	sound_call .sub2
	sound_call .sub2
	sound_call .sub2
	sound_call .sub2
	sound_call .sub2
	sound_call .sub2
	sound_call .sub2
	sound_loop 0, .mainloop

.sub1:
	drum_note 3, 1
	drum_note 3, 1
	drum_note 4, 1
	drum_note 4, 1
	drum_note 3, 2
	drum_note 8, 2
	drum_note 8, 1
	drum_note 8, 1
	drum_note 7, 2
	drum_note 8, 1
	drum_note 8, 1
	drum_note 8, 1
	drum_note 8, 1
	sound_ret

.sub2:
	drum_note 4, 2
	drum_note 8, 1
	drum_note 8, 1
	drum_note 8, 1
	rest 1
	drum_note 4, 1
	drum_note 4, 1
	rest 2
	drum_note 4, 2
	drum_note 3, 2
	drum_note 4, 2
	sound_ret
